<svg xmlns="http://www.w3.org/2000/svg" xmlns:xlink="http://www.w3.org/1999/xlink" width="1175.876" height="1080" viewBox="0 0 1175.876 1080">
  <defs>
    <clipPath id="clip-path">
      <path id="Path_32" data-name="Path 32" d="M0,0H1175.876V1080H0Z" fill="#fff"/>
    </clipPath>
    <linearGradient id="linear-gradient" x1="0.255" y1="0.235" x2="0.821" y2="0.847" gradientUnits="objectBoundingBox">
      <stop offset="0" stop-color="#6993ff"/>
      <stop offset="1" stop-color="#344bc4"/>
    </linearGradient>
    <filter id="Path_1" x="-900.984" y="-639.335" width="2218.463" height="2113.099" filterUnits="userSpaceOnUse">
      <feOffset dx="50" dy="150" input="SourceAlpha"/>
      <feGaussianBlur stdDeviation="49.5" result="blur"/>
      <feFlood flood-opacity="0.212"/>
      <feComposite operator="in" in2="blur"/>
      <feComposite in="SourceGraphic"/>
    </filter>
    <linearGradient id="linear-gradient-2" x1="0.255" y1="0.235" x2="0.821" y2="0.847" gradientUnits="objectBoundingBox">
      <stop offset="0" stop-color="#fff"/>
      <stop offset="1" stop-color="#fff"/>
    </linearGradient>
  </defs>
  <g id="Group_6" data-name="Group 6" transform="translate(-6410 -478)">
    <g id="Mask_Group_1" data-name="Mask Group 1" transform="translate(6410 478)" clip-path="url(#clip-path)">
      <g id="Group_1" data-name="Group 1" transform="translate(-29.094 -74.313)">
        <g transform="matrix(1, 0, 0, 1, 29.09, 74.31)" filter="url(#Path_1)">
          <path id="Path_1-2" data-name="Path 1" d="M1088.465,0H608.541A368.531,368.531,0,0,0,289.35,184.322L49.39,599.958a368.42,368.42,0,0,0,0,368.529l239.962,415.64A368.528,368.528,0,0,0,608.54,1568.445h479.923a368.529,368.529,0,0,0,319.187-184.318l239.96-415.638a368.419,368.419,0,0,0,0-368.529L1407.65,184.318A368.527,368.527,0,0,0,1088.465,0Z" transform="translate(-802.48 -373.87) rotate(-9)" fill="url(#linear-gradient)"/>
        </g>
        <path id="Path_2" data-name="Path 2" d="M361.229,0H201.956A122.3,122.3,0,0,0,96.025,61.174L16.391,199.108a122.267,122.267,0,0,0,0,122.3L96.028,459.35a122.3,122.3,0,0,0,105.929,61.17H361.229a122.3,122.3,0,0,0,105.932-61.174l79.633-137.935a122.267,122.267,0,0,0,0-122.3L467.158,61.17A122.3,122.3,0,0,0,361.229,0Z" transform="translate(-248.374 -5.204) rotate(-9)" fill="url(#linear-gradient-2)"/>
        <text id="Easy_Capture" data-name="Easy Capture" transform="translate(491.053 503.971)" fill="#fff" font-size="20" font-family="Helvetica"><tspan x="0" y="0">Easy Capture</tspan></text>
        <text id="Zero_Physical_Handoff" data-name="Zero Physical Handoff" transform="translate(490.98 621.227)" fill="#fff" font-size="20" font-family="Helvetica"><tspan x="0" y="0">Zero Physical Handoff</tspan></text>
        <text id="Upload_Picture" data-name="Upload Picture" transform="translate(490.812 681.948)" fill="#fff" font-size="20" font-family="Helvetica"><tspan x="0" y="0">Upload Picture</tspan></text>
        <text id="Digi_Sign" data-name="Digi Sign" transform="translate(490.749 742.67)" fill="#fff" font-size="20" font-family="Helvetica"><tspan x="0" y="0">Digi Sign</tspan></text>
        <text id="Geo_Tagging" data-name="Geo Tagging" transform="translate(490.278 803.392)" fill="#fff" font-size="20" font-family="Helvetica"><tspan x="0" y="0">Geo Tagging</tspan></text>
        <text id="Live_MIS" data-name="Live MIS" transform="translate(490.446 560.505)" fill="#fff" font-size="20" font-family="Helvetica"><tspan x="0" y="0">Live MIS</tspan></text>
        <line id="Line_1" data-name="Line 1" y2="303.608" transform="translate(455.583 492.917)" fill="none" stroke="#fff" stroke-width="1.5"/>
        <g id="Ellipse_1" data-name="Ellipse 1" transform="translate(449.825 490.3)" fill="#fa0" stroke="#fff" stroke-width="1.5">
          <circle cx="6.282" cy="6.282" r="6.282" stroke="none"/>
          <circle cx="6.282" cy="6.282" r="7.032" fill="none"/>
        </g>
        <g id="Ellipse_2" data-name="Ellipse 2" transform="translate(449.825 547.881)" fill="#68bc30" stroke="#fff" stroke-width="1.5">
          <circle cx="6.282" cy="6.282" r="6.282" stroke="none"/>
          <circle cx="6.282" cy="6.282" r="7.032" fill="none"/>
        </g>
        <g id="Ellipse_3" data-name="Ellipse 3" transform="translate(449.825 669.324)" fill="#25d9f8" stroke="#fff" stroke-width="1.5">
          <circle cx="6.282" cy="6.282" r="6.282" stroke="none"/>
          <circle cx="6.282" cy="6.282" r="7.032" fill="none"/>
        </g>
        <g id="Ellipse_4" data-name="Ellipse 4" transform="translate(449.825 730.045)" fill="#ffc2c9" stroke="#fff" stroke-width="1.5">
          <circle cx="6.282" cy="6.282" r="6.282" stroke="none"/>
          <circle cx="6.282" cy="6.282" r="7.032" fill="none"/>
        </g>
        <g id="Ellipse_5" data-name="Ellipse 5" transform="translate(449.825 790.767)" fill="#8f59fc" stroke="#fff" stroke-width="1.5">
          <circle cx="6.282" cy="6.282" r="6.282" stroke="none"/>
          <circle cx="6.282" cy="6.282" r="7.032" fill="none"/>
        </g>
        <g id="Ellipse_6" data-name="Ellipse 6" transform="translate(449.825 608.602)" fill="#ff7171" stroke="#fff" stroke-width="1.5">
          <circle cx="6.282" cy="6.282" r="6.282" stroke="none"/>
          <circle cx="6.282" cy="6.282" r="7.032" fill="none"/>
        </g>
        <text id="Welcome_To" data-name="Welcome To" transform="translate(449.825 355.214)" fill="#fff" font-size="22" font-family="Helvetica"><tspan x="0" y="0">Welcome To</tspan></text>
        <g id="Layer_2" data-name="Layer 2" transform="translate(2015.096 288.313)">
          <g id="Layer_1" data-name="Layer 1">
            <path id="Path_33" data-name="Path 33" d="M18.75,18.75A18.112,18.112,0,0,1,5.42,13.33,18.426,18.426,0,0,1,0,0H112.5a17.878,17.878,0,0,1-5.566,13.33A18.262,18.262,0,0,1,93.75,18.75ZM0,93.75V37.5H112.5V93.75H93.75V56.25h-75v37.5Z"/>
            <path id="Path_34" data-name="Path 34" d="M131.25,93.75a17.941,17.941,0,0,1,5.42-13.184A18.182,18.182,0,0,1,150,75h75V56.25H131.25V0h112.5a17.879,17.879,0,0,1-5.566,13.33A18.263,18.263,0,0,1,225,18.75H150V37.5h93.75V93.75Z"/>
            <path id="Path_35" data-name="Path 35" d="M309.375,93.75v-75H281.25a18.112,18.112,0,0,1-13.33-5.42A18.426,18.426,0,0,1,262.5,0H375a17.879,17.879,0,0,1-5.566,13.33,18.262,18.262,0,0,1-13.184,5.42H328.125v75Z"/>
            <path id="Path_36" data-name="Path 36" d="M393.75,93.75V37.5h84.375a9.254,9.254,0,0,0,9.375-9.375V18.75h-75a18.112,18.112,0,0,1-13.33-5.42A18.426,18.426,0,0,1,393.75,0h112.5V37.5a17.878,17.878,0,0,1-5.566,13.33A18.264,18.264,0,0,1,487.5,56.25H468.75l37.5,37.5H478.125l-37.5-37.5H412.5v37.5Z"/>
            <path id="Path_37" data-name="Path 37" d="M543.75,18.75a18.112,18.112,0,0,1-13.33-5.42A18.426,18.426,0,0,1,525,0H637.5a17.878,17.878,0,0,1-5.566,13.33,18.264,18.264,0,0,1-13.184,5.42ZM525,93.75V37.5H637.5V93.75H618.75V56.25h-75v37.5Z"/>
            <path id="Path_38" data-name="Path 38" d="M675,93.75v-75L656.25,0h28.125L731.25,46.875,778.125,0H806.25L787.5,18.75v75H768.75V37.5L740.625,65.625V93.75h-18.75V65.625L693.75,37.5V93.75Z"/>
          </g>
        </g>
      </g>
    </g>
    <g id="Layer_2-2" data-name="Layer 2" transform="translate(6482.002 614)">
      <g id="Layer_1-2" data-name="Layer 1">
        <path id="Path_31" data-name="Path 31" d="M18.75,18.75A18.112,18.112,0,0,1,5.42,13.33,18.426,18.426,0,0,1,0,0H112.5a17.878,17.878,0,0,1-5.566,13.33A18.264,18.264,0,0,1,93.75,18.75ZM0,93.75V37.5H112.5V93.75H93.75V56.25h-75v37.5Z" fill="#456af2"/>
      </g>
    </g>
    <g id="Layer_2-3" data-name="Layer 2" transform="translate(6830.002 786)">
      <g id="Layer_1-3" data-name="Layer 1" transform="translate(-0.002 0)">
        <path id="Path_39" data-name="Path 39" d="M4.564,4.566a4.41,4.41,0,0,1-3.246-1.32A4.487,4.487,0,0,1,0,0H27.392a4.353,4.353,0,0,1-1.355,3.246,4.447,4.447,0,0,1-3.21,1.32ZM0,22.828V9.131H27.392v13.7H22.826V13.7H4.564v9.131Z" transform="translate(0.002 0)" fill="#fff"/>
        <path id="Path_40" data-name="Path 40" d="M131.248,22.828a4.369,4.369,0,0,1,1.32-3.21,4.427,4.427,0,0,1,3.246-1.355h18.262V13.7H131.248V0h27.393a4.353,4.353,0,0,1-1.355,3.246,4.447,4.447,0,0,1-3.21,1.32H135.813V9.131h22.828v13.7Z" transform="translate(-99.288 0)" fill="#fff"/>
        <path id="Path_41" data-name="Path 41" d="M273.912,22.828V4.566h-6.848a4.41,4.41,0,0,1-3.246-1.32A4.487,4.487,0,0,1,262.5,0h27.393a4.353,4.353,0,0,1-1.355,3.246,4.447,4.447,0,0,1-3.21,1.32h-6.848V22.828Z" transform="translate(-198.58 0)" fill="#fff"/>
        <path id="Path_42" data-name="Path 42" d="M393.748,22.828V9.131h20.545a2.253,2.253,0,0,0,2.283-2.283V4.566H398.314a4.41,4.41,0,0,1-3.246-1.32A4.487,4.487,0,0,1,393.748,0h27.393V9.131a4.353,4.353,0,0,1-1.355,3.246,4.447,4.447,0,0,1-3.21,1.32h-4.566l9.131,9.131h-6.848L405.162,13.7h-6.848v9.131Z" transform="translate(-297.871 0)" fill="#fff"/>
        <path id="Path_43" data-name="Path 43" d="M529.564,4.566a4.41,4.41,0,0,1-3.246-1.32A4.487,4.487,0,0,1,525,0h27.393a4.353,4.353,0,0,1-1.355,3.246,4.447,4.447,0,0,1-3.21,1.32ZM525,22.828V9.131h27.393v13.7h-4.566V13.7H529.564v9.131Z" transform="translate(-397.162 0)" fill="#fff"/>
        <path id="Path_44" data-name="Path 44" d="M660.816,22.828V4.566L656.25,0H663.1l11.414,11.414L685.926,0h6.848l-4.565,4.566V22.828h-4.566V9.131L676.8,15.98v6.848h-4.566V15.98l-6.848-6.848v13.7Z" transform="translate(-496.455 0)" fill="#fff"/>
      </g>
    </g>
  </g>
</svg>
