<svg id="googlepay" xmlns="http://www.w3.org/2000/svg" width="204.664" height="65" viewBox="0 0 204.664 65">
  <path id="Path_3" data-name="Path 3" d="M202.039,11H22.5C11.784,11,10,14.518,10,22.884V64.191C10,72.559,13.67,76,22.488,76H202.041c8.824,0,12.623-3.455,12.623-11.82v-41.3C214.664,14.518,210.863,11,202.039,11Z" transform="translate(-10 -11)" fill="#222d32" fill-rule="evenodd"/>
  <path id="Path_4" data-name="Path 4" d="M93.815,78.55a1.147,1.147,0,0,0-.765,1.084v37.91a1.147,1.147,0,0,0,.765,1.082l20.127-20.045Z" transform="translate(-77.173 -65.636)" fill="#00d6ff"/>
  <path id="Path_5" data-name="Path 5" d="M122.809,92.641l-24.853-14.3A1.126,1.126,0,0,0,97,78.253l20.137,20.033Z" transform="translate(-80.368 -65.341)" fill="#00f076"/>
  <path id="Path_6" data-name="Path 6" d="M97.956,203.289l24.853-14.3-5.684-5.657L97,203.375A1.147,1.147,0,0,0,97.956,203.289Z" transform="translate(-80.368 -150.385)" fill="#ff3a44"/>
  <path id="Path_7" data-name="Path 7" d="M208.006,165.1l8.085-4.651a1.147,1.147,0,0,0,0-2l-8.1-4.655-5.674,5.645Z" transform="translate(-165.553 -126.5)" fill="#ffd000"/>
  <path id="Path_8" data-name="Path 8" d="M338.075,176.3a6.283,6.283,0,0,0-6.422,6.422,6.374,6.374,0,0,0,6.422,6.42,6.282,6.282,0,0,0,6.42-6.42,6.2,6.2,0,0,0-6.42-6.422Zm0,10.153a3.894,3.894,0,0,1,0-7.764,3.616,3.616,0,0,1,3.583,3.883,3.706,3.706,0,0,1-3.583,3.883ZM324.18,176.3a6.282,6.282,0,0,0-6.42,6.422,6.372,6.372,0,0,0,6.42,6.422,6.282,6.282,0,0,0,6.422-6.42,6.191,6.191,0,0,0-6.422-6.424Zm0,10.153a3.894,3.894,0,0,1,0-7.764,3.618,3.618,0,0,1,3.585,3.883,3.7,3.7,0,0,1-3.585,3.883ZM307.6,178.232v2.688h6.422a5.679,5.679,0,0,1-1.493,3.441,6.617,6.617,0,0,1-4.929,1.94,6.953,6.953,0,0,1-7.018-7.167,7.044,7.044,0,0,1,7.018-7.167,7.4,7.4,0,0,1,4.929,1.94l1.94-1.94a9.565,9.565,0,0,0-6.718-2.688,9.857,9.857,0,1,0,.006,19.715,8.592,8.592,0,0,0,6.869-2.838,8.988,8.988,0,0,0,2.388-6.271,5.62,5.62,0,0,0-.149-1.644Zm67.81,2.1a5.832,5.832,0,0,0-5.385-4.034c-3.283,0-5.974,2.539-5.974,6.422a6.249,6.249,0,0,0,6.272,6.42,6.127,6.127,0,0,0,5.227-2.837l-2.091-1.493a3.636,3.636,0,0,1-3.135,1.791,3.238,3.238,0,0,1-3.135-1.94l8.511-3.583Zm-8.672,2.084a3.628,3.628,0,0,1,3.286-3.732,2.645,2.645,0,0,1,2.388,1.338Zm-7.018,6.118h2.837V169.88h-2.837Zm-4.479-10.9a4.913,4.913,0,0,0-3.441-1.493,6.413,6.413,0,0,0-6.118,6.422,6.183,6.183,0,0,0,6.118,6.271,4.286,4.286,0,0,0,3.286-1.493h.149v.9c0,2.388-1.338,3.732-3.441,3.732a3.318,3.318,0,0,1-3.135-2.239l-2.39,1.044a6.16,6.16,0,0,0,5.676,3.734c3.284,0,5.972-1.94,5.972-6.571V176.6h-2.676Zm-3.284,8.809a3.91,3.91,0,1,1,0,.007Zm36.438-16.57h-6.72v18.666h2.837v-7.01H388.4a5.831,5.831,0,1,0,0-11.648Zm.149,8.96h-4.032v-6.414h4.032a3.279,3.279,0,0,1,3.284,3.135,3.413,3.413,0,0,1-3.284,3.286Zm17.173-2.688c-2.091,0-4.181.9-4.929,2.837l2.537,1.053a2.631,2.631,0,0,1,2.539-1.338,2.8,2.8,0,0,1,2.986,2.388v.151a5.9,5.9,0,0,0-2.837-.747c-2.688,0-5.376,1.493-5.376,4.181a4.373,4.373,0,0,0,4.628,4.181,4.206,4.206,0,0,0,3.585-1.791H409v1.493h2.688V181.38a5.65,5.65,0,0,0-5.972-5.227Zm-.3,10.3c-.895,0-2.239-.447-2.239-1.642,0-1.493,1.642-1.94,2.986-1.94a5.785,5.785,0,0,1,2.539.6,3.479,3.479,0,0,1-3.286,2.994ZM421.1,176.59l-3.137,8.064h-.149l-3.284-8.064h-2.977l4.927,11.348-2.843,6.28h2.837l7.616-17.621Zm-25.082,11.954h2.837V169.88h-2.837Z" transform="translate(-232.739 -139.021)" fill="#fff"/>
  <path id="Path_9" data-name="Path 9" d="M303.9,95.409h4.653a3.279,3.279,0,0,1,.067.382,3.963,3.963,0,0,1,.027.451,5.255,5.255,0,0,1-.279,1.721,4,4,0,0,1-.876,1.445,4.372,4.372,0,0,1-1.529,1.046,5.2,5.2,0,0,1-2.028.373,5.114,5.114,0,0,1-1.946-.369,4.841,4.841,0,0,1-1.591-1.032,4.995,4.995,0,0,1,0-7.106,4.841,4.841,0,0,1,1.591-1.032,5.408,5.408,0,0,1,4.015.025,4.613,4.613,0,0,1,1.558,1.1l-1.233,1.206a3.374,3.374,0,0,0-3.632-.776,3.059,3.059,0,0,0-1.721,1.684,3.609,3.609,0,0,0,0,2.69,3.058,3.058,0,0,0,.7,1.029,3.174,3.174,0,0,0,1.027.656,3.659,3.659,0,0,0,2.525.013,3.013,3.013,0,0,0,.895-.574,2.12,2.12,0,0,0,.457-.6,3.467,3.467,0,0,0,.3-.816H303.9Z" transform="translate(-233.682 -75.636)" fill="#fff"/>
  <path id="Path_10" data-name="Path 10" d="M359.4,93.7v2.2h3.8v1.7h-3.8v2.2h4.229v1.7H357.61V92h6.018v1.7Z" transform="translate(-281.155 -76.515)" fill="#fff"/>
  <path id="Path_11" data-name="Path 11" d="M397.01,101.5V93.7h-2.65V92h7.091v1.7H398.8v7.794Z" transform="translate(-310.879 -76.515)" fill="#fff"/>
  <path id="Path_12" data-name="Path 12" d="M453.36,92h1.789v9.492H453.36Z" transform="translate(-358.6 -76.515)" fill="#fff"/>
  <path id="Path_13" data-name="Path 13" d="M472.022,101.5V93.7H469.37V92h7.093v1.7h-2.652v7.794Z" transform="translate(-371.549 -76.515)" fill="#fff"/>
  <path id="Path_14" data-name="Path 14" d="M529.515,100.836a4.988,4.988,0,0,1-1.967-.382,4.811,4.811,0,0,1-1.571-1.053,4.873,4.873,0,0,1-1.04-1.577,5.162,5.162,0,0,1,0-3.883,4.8,4.8,0,0,1,2.612-2.636,5.232,5.232,0,0,1,3.936,0,4.818,4.818,0,0,1,2.612,2.632,5.192,5.192,0,0,1,0,3.883,4.806,4.806,0,0,1-2.612,2.631,5,5,0,0,1-1.97.385Zm0-1.7a3.231,3.231,0,0,0,1.241-.239,3.1,3.1,0,0,0,1.006-.661,3.005,3.005,0,0,0,.677-1.029,3.745,3.745,0,0,0,0-2.663,3,3,0,0,0-.677-1.029,3.1,3.1,0,0,0-1.006-.661,3.336,3.336,0,0,0-2.485,0,3.106,3.106,0,0,0-1.008.661,3.032,3.032,0,0,0-.677,1.029,3.746,3.746,0,0,0,0,2.663,3.03,3.03,0,0,0,.677,1.029,3.106,3.106,0,0,0,1.008.661,3.213,3.213,0,0,0,1.244.242Z" transform="translate(-416.186 -75.641)" fill="#fff"/>
  <path id="Path_15" data-name="Path 15" d="M584,92h2.082l3.824,6.362h.107l-.107-1.828V92h1.776v9.492H589.8l-4.041-6.716h-.1l.1,1.83V101.5H584Z" transform="translate(-464.265 -76.515)" fill="#fff"/>
</svg>
