<svg xmlns="http://www.w3.org/2000/svg" width="196.32" height="22.828" viewBox="0 0 196.32 22.828">
  <g id="Layer_2" data-name="Layer 2" transform="translate(0.002)">
    <g id="Layer_1" data-name="Layer 1" transform="translate(-0.002 0)">
      <path id="Path_39" data-name="Path 39" d="M4.564,4.566a4.41,4.41,0,0,1-3.246-1.32A4.487,4.487,0,0,1,0,0H27.392a4.353,4.353,0,0,1-1.355,3.246,4.447,4.447,0,0,1-3.21,1.32ZM0,22.828V9.131H27.392v13.7H22.826V13.7H4.564v9.131Z" transform="translate(0.002 0)" fill="#222d32"/>
      <path id="Path_40" data-name="Path 40" d="M131.248,22.828a4.369,4.369,0,0,1,1.32-3.21,4.427,4.427,0,0,1,3.246-1.355h18.262V13.7H131.248V0h27.393a4.353,4.353,0,0,1-1.355,3.246,4.447,4.447,0,0,1-3.21,1.32H135.813V9.131h22.828v13.7Z" transform="translate(-99.288 0)" fill="#222d32"/>
      <path id="Path_41" data-name="Path 41" d="M273.912,22.828V4.566h-6.848a4.41,4.41,0,0,1-3.246-1.32A4.487,4.487,0,0,1,262.5,0h27.393a4.353,4.353,0,0,1-1.355,3.246,4.447,4.447,0,0,1-3.21,1.32h-6.848V22.828Z" transform="translate(-198.58 0)" fill="#222d32"/>
      <path id="Path_42" data-name="Path 42" d="M393.748,22.828V9.131h20.545a2.253,2.253,0,0,0,2.283-2.283V4.566H398.314a4.41,4.41,0,0,1-3.246-1.32A4.487,4.487,0,0,1,393.748,0h27.393V9.131a4.353,4.353,0,0,1-1.355,3.246,4.447,4.447,0,0,1-3.21,1.32h-4.566l9.131,9.131h-6.848L405.162,13.7h-6.848v9.131Z" transform="translate(-297.871 0)" fill="#222d32"/>
      <path id="Path_43" data-name="Path 43" d="M529.564,4.566a4.41,4.41,0,0,1-3.246-1.32A4.487,4.487,0,0,1,525,0h27.393a4.353,4.353,0,0,1-1.355,3.246,4.447,4.447,0,0,1-3.21,1.32ZM525,22.828V9.131h27.393v13.7h-4.566V13.7H529.564v9.131Z" transform="translate(-397.162 0)" fill="#222d32"/>
      <path id="Path_44" data-name="Path 44" d="M660.816,22.828V4.566L656.25,0H663.1l11.414,11.414L685.926,0h6.848l-4.565,4.566V22.828h-4.566V9.131L676.8,15.98v6.848h-4.566V15.98l-6.848-6.848v13.7Z" transform="translate(-496.455 0)" fill="#222d32"/>
    </g>
  </g>
</svg>
