<svg xmlns="http://www.w3.org/2000/svg" xmlns:xlink="http://www.w3.org/1999/xlink" width="326" height="326" viewBox="0 0 326 326"><defs><style>.a{fill:#fff;stroke:#707070;}.b{clip-path:url(#a);}.c{fill:url(#b);}.d{fill:url(#c);}.e{fill:#456af2;}.f{fill:none;stroke:#456af2;stroke-width:5.5px;}</style><clipPath id="a"><rect class="a" width="326" height="326" transform="translate(5457 380)"/></clipPath><linearGradient id="b" x1="0.255" y1="0.235" x2="0.821" y2="0.847" gradientUnits="objectBoundingBox"><stop offset="0" stop-color="#6993ff"/><stop offset="1" stop-color="#344bc4"/></linearGradient><linearGradient id="c" x1="0.255" y1="0.235" x2="0.821" y2="0.847" gradientUnits="objectBoundingBox"><stop offset="0" stop-color="#fff"/><stop offset="1" stop-color="#fff"/></linearGradient></defs><g class="b" transform="translate(-5457 -380)"><g transform="translate(5322.987 254.781)"><path class="c" d="M230.555,0H128.9A78.061,78.061,0,0,0,61.288,39.043L10.462,127.082a78.038,78.038,0,0,0,0,78.061l50.827,88.04a78.061,78.061,0,0,0,67.61,39.043H230.555a78.061,78.061,0,0,0,67.61-39.043l50.828-88.04a78.037,78.037,0,0,0,0-78.061L298.165,39.043A78.06,78.06,0,0,0,230.555,0Z" transform="translate(0 56.23) rotate(-9)"/><path class="d" d="M132.211,0H73.918A44.765,44.765,0,0,0,35.145,22.39L6,72.874a44.748,44.748,0,0,0,0,44.764l29.147,50.486a44.764,44.764,0,0,0,38.771,22.388h58.294a44.763,44.763,0,0,0,38.766-22.386l29.15-50.485a44.748,44.748,0,0,0,0-44.764L170.98,22.388A44.764,44.764,0,0,0,132.211,0Z" transform="translate(52.283 77.229) rotate(-9)"/></g></g><path class="e" d="M4.488,15.248c4.119-.03,20.752.055,26.774,0S37,9.213,37,9.213H0S.369,15.278,4.488,15.248Z" transform="translate(35.741 27.188)"/><path class="f" d="M38.375,66.98v-15.8H69.792v15.8"/></svg>