<svg xmlns="http://www.w3.org/2000/svg" width="61.577" height="61.859" viewBox="0 0 61.577 61.859">
  <g id="shield" transform="translate(-1.172)">
    <path id="Path_16" data-name="Path 16" d="M67.5,13.84A46.35,46.35,0,0,1,38.687,9.6a46.35,46.35,0,0,1-28.81,4.24s-9.635,44.8,28.81,55.5C77.132,58.644,67.5,13.84,67.5,13.84Z" transform="translate(-6.712 -8.444)" fill="#fff"/>
    <path id="Path_17" data-name="Path 17" d="M31.975,61.859l-.289-.1C-7.144,50.971,2.106,5.685,2.2,5.2l.193-.867.867.193a40.959,40.959,0,0,0,7.71.674A46.022,46.022,0,0,0,31.4.385L31.975,0l.482.289A44.079,44.079,0,0,0,52.884,5.107a40.959,40.959,0,0,0,7.708-.674l.867-.193.193.867c.193.578,9.443,45.864-29.388,56.656ZM3.936,6.552A67.808,67.808,0,0,0,4.129,29c3.083,16.091,12.43,26.5,27.846,30.833,33.82-9.539,29.1-47.02,28.039-53.38a43.593,43.593,0,0,1-7.13.578A47.057,47.057,0,0,1,31.975,2.216,46.637,46.637,0,0,1,11.066,7.034a59.079,59.079,0,0,1-7.13-.482Z" fill="#222d32"/>
    <path id="Path_18" data-name="Path 18" d="M73.854,103.636c-13.3-4.047-21.39-13.3-24.088-27.557a57.929,57.929,0,0,1-.578-17.44c1.253.1,2.5.193,3.854.193A52.168,52.168,0,0,0,73.95,54.4a52.168,52.168,0,0,0,20.909,4.432c1.253,0,2.6-.1,3.854-.193C99.773,69.142,99.869,95.639,73.854,103.636Z" transform="translate(-41.879 -47.848)" fill="#222d32"/>
    <path id="Path_19" data-name="Path 19" d="M221.7,176.788a5.589,5.589,0,0,0-11.177,0,5.7,5.7,0,0,0,2.7,4.818l-1.349,8h8.383l-1.253-8A5.583,5.583,0,0,0,221.7,176.788Z" transform="translate(-184.135 -150.58)" fill="#fff"/>
  </g>
</svg>
