<svg xmlns="http://www.w3.org/2000/svg" width="190.936" height="65" viewBox="0 0 190.936 65">
  <g id="weblink" transform="translate(-1424 -702)">
    <path id="Path_20" data-name="Path 20" d="M189.158,11H21.663C11.665,11,10,14.518,10,22.884V64.191C10,72.559,13.424,76,21.65,76H189.16c8.232,0,11.776-3.455,11.776-11.82v-41.3C200.936,14.518,197.39,11,189.158,11Z" transform="translate(1414 691)" fill="#222d32" fill-rule="evenodd"/>
    <g id="Group_4" data-name="Group 4" transform="translate(0 -2)">
      <g id="Group_2" data-name="Group 2" transform="translate(7)">
        <text id="GO_TO" data-name="GO TO" transform="translate(1483 727)" fill="#fff" font-size="15" font-family="Helvetica"><tspan x="0" y="0">GO TO</tspan></text>
        <text id="Weblink-2" data-name="Weblink" transform="translate(1483 754)" fill="#fff" font-size="25" font-family="Helvetica"><tspan x="0" y="0">Weblink</tspan></text>
      </g>
      <g id="Group_3" data-name="Group 3" transform="translate(1439 717.43)">
        <path id="Path_21" data-name="Path 21" d="M50.322,38.8c-4.535,9.51-11.513,11.565-16.576,11.565a17.734,17.734,0,0,1-14.375-7.492,17.957,17.957,0,0,1-2.2-16.312l.352-.726a17.551,17.551,0,0,1,30.6-3.346A17.957,17.957,0,0,1,50.322,38.8Z" transform="translate(-14.961 -13.899)" fill="#65b1fc"/>
        <path id="Path_22" data-name="Path 22" d="M272.576,38.8C268.041,48.31,261.063,50.365,256,50.365V15a17.734,17.734,0,0,1,14.375,7.492,17.957,17.957,0,0,1,2.2,16.308Z" transform="translate(-237.215 -13.899)" fill="#1689fc"/>
        <path id="Path_23" data-name="Path 23" d="M34.3,7.954A18.88,18.88,0,0,0,19.02,0,18.868,18.868,0,0,0,1.72,11.718l-.374.771a18.44,18.44,0,0,0,2.4,17.126A18.88,18.88,0,0,0,19.02,37.57,18.93,18.93,0,0,0,36.235,26.115l.33-.66A18.475,18.475,0,0,0,34.3,7.954ZM5.548,28.339A16.825,16.825,0,0,1,3.5,13.017l.286-.594A16.777,16.777,0,0,1,13.34,3.258C10.677,6.736,9.07,13.5,9.268,15.7a.652.652,0,0,0-.044.22c-.572,7.374,1.1,14.492,4.249,18.477a16.8,16.8,0,0,1-7.925-6.058ZM17.92,35.17a5.951,5.951,0,0,1-2.267-1.614C12.57,30.232,10.875,23.21,11.426,16.1v-.2c0-.066.022-.154.022-.22C12.086,8.835,14.772,3.434,17.92,2.4Zm2.2-.022V2.4c3.39,1.123,6.23,7.36,6.56,14.8.308,6.868-1.409,13.318-4.381,16.444a5.573,5.573,0,0,1-2.178,1.5Zm14.419-10.6c-2.466,5.2-5.944,8.394-9.972,9.825,2.95-3.72,4.623-10.354,4.315-17.266-.264-5.856-1.915-10.9-4.315-13.942A16.689,16.689,0,0,1,34.54,24.552Z" transform="translate(-0.236)" fill="#96ebe6"/>
        <path id="Path_24" data-name="Path 24" d="M271.277,7.954A18.88,18.88,0,0,0,256,0V37.57a18.93,18.93,0,0,0,17.215-11.454l.33-.66a18.475,18.475,0,0,0-2.268-17.5ZM257.1,35.148V2.4c3.39,1.123,6.23,7.36,6.56,14.8.308,6.868-1.409,13.318-4.381,16.444a5.573,5.573,0,0,1-2.179,1.5Zm14.419-10.6c-2.466,5.2-5.944,8.394-9.972,9.825,2.95-3.72,4.623-10.354,4.315-17.266-.264-5.856-1.915-10.9-4.315-13.942a16.689,16.689,0,0,1,9.972,21.383Z" transform="translate(-237.215)" fill="#00c8c8"/>
        <path id="Path_25" data-name="Path 25" d="M34.194,151H3.375A3.361,3.361,0,0,0,0,154.3v8.805a3.361,3.361,0,0,0,3.375,3.3H34.194a3.361,3.361,0,0,0,3.375-3.3V154.3a3.361,3.361,0,0,0-3.375-3.3Z" transform="translate(0 -139.92)" fill="#0053bf"/>
        <path id="Path_26" data-name="Path 26" d="M274.785,154.3v8.805a3.361,3.361,0,0,1-3.375,3.3H256V151h15.409A3.361,3.361,0,0,1,274.785,154.3Z" transform="translate(-237.215 -139.92)" fill="#05377f"/>
        <path id="Path_27" data-name="Path 27" d="M191.879,212.568l-2.2,4.4a1.1,1.1,0,0,1-1.981,0l-1.211-2.421-1.211,2.421a1.155,1.155,0,0,1-1.981,0l-2.2-4.4a1.1,1.1,0,1,1,1.981-.969l1.211,2.422L185.5,211.6a1.143,1.143,0,0,1,1.981,0l1.211,2.422L189.9,211.6a1.1,1.1,0,0,1,1.981.969Z" transform="translate(-167.701 -195.5)" fill="#e1f1fa"/>
        <path id="Path_28" data-name="Path 28" d="M338.28,217.614a1.1,1.1,0,0,1-.985-.608l-1.217-2.434-1.217,2.434a1.146,1.146,0,0,1-1.969,0l-2.109-4.219a1.089,1.089,0,0,1,.754-1.77,1.211,1.211,0,0,1,1.122.6l1.217,2.434,1.217-2.434a1.146,1.146,0,0,1,1.969,0l1.217,2.434,1.217-2.434a1.1,1.1,0,0,1,1.969.985l-2.2,4.4a1.1,1.1,0,0,1-.985.612Z" transform="translate(-306.287 -195.527)" fill="#bfe1ff"/>
        <path id="Path_29" data-name="Path 29" d="M40.972,211.012a1.151,1.151,0,0,0-1.056.606L38.7,214.052l-1.217-2.434a1.116,1.116,0,0,0-1.969,0L34.3,214.052l-1.217-2.434a1.1,1.1,0,1,0-1.969.985l2.2,4.4a1.1,1.1,0,0,0,1.969,0l1.217-2.434L37.717,217a1.1,1.1,0,0,0,1.969,0l2.073-4.147a1.113,1.113,0,0,0-.786-1.847Z" transform="translate(-28.72 -195.527)" fill="#e1f1fa"/>
        <path id="Path_30" data-name="Path 30" d="M261.393,212.568l-2.2,4.4a1.1,1.1,0,0,1-1.981,0L256,214.549v-3.522a1.11,1.11,0,0,1,.991.572l1.211,2.422,1.211-2.422a1.1,1.1,0,1,1,1.981.969Z" transform="translate(-237.215 -195.5)" fill="#bfe1ff"/>
      </g>
    </g>
  </g>
</svg>
